<?xml version="1.0" encoding="UTF-8"?>
<svg id="Logo" xmlns="http://www.w3.org/2000/svg" width="559.157" height="186.692" version="1.1" viewBox="0 0 559.157 186.692">
  <!-- Generator: Adobe Illustrator 30.2.1, SVG Export Plug-In . SVG Version: 2.1.1 Build 1)  -->
  <defs>
    <style>
      .st0 {
        fill: #01a0c6;
        fill-rule: evenodd;
      }

      .st1 {
        fill: #333;
      }
    </style>
  </defs>
  <g id="Wordmark">
    <path class="st1" d="M173.177,119.365c6.161,0,11.201-2.73,11.201-9.941v-2.59c0-1.12.07-2.24.07-2.24h-.141c-2.1,3.5-5.391,5.53-10.501,5.53-9.871,0-15.821-7.911-15.821-18.132,0-10.152,5.671-17.712,15.472-17.712,8.541,0,11.131,5.25,11.131,5.25h.14s-.069-.489-.069-1.12v-3.29h6.511v33.955c0,11.69-8.892,16.171-17.853,16.171-4.271,0-8.681-1.189-12.111-2.939l2.24-5.321s4.411,2.381,9.731,2.381ZM184.517,92.061c0-9.241-4.48-11.901-10.011-11.901-6.16,0-9.661,4.48-9.661,11.691,0,7.352,3.921,12.392,10.291,12.392,4.9,0,9.381-2.94,9.381-12.182Z"/>
    <path class="st1" d="M199.984,75.119h6.791v21.143c0,4.9.98,8.82,6.65,8.82,7.211,0,11.481-6.37,11.481-13.371v-16.592h6.791v35.424h-6.581v-4.69c0-1.47.14-2.591.14-2.591h-.14c-1.47,3.501-6.091,8.121-13.021,8.121-7.98,0-12.111-4.2-12.111-13.581v-22.683Z"/>
    <path class="st1" d="M256.265,74.28c10.011,0,15.331,7.421,15.331,16.592,0,.91-.21,2.94-.21,2.94h-25.832c.35,7.771,5.88,11.69,12.181,11.69,6.091,0,10.501-4.13,10.501-4.13l2.801,4.971s-5.251,5.04-13.722,5.04c-11.131,0-18.762-8.051-18.762-18.552,0-11.272,7.631-18.552,17.712-18.552ZM264.666,88.702c-.21-6.091-3.99-9.032-8.54-9.032-5.181,0-9.382,3.22-10.361,9.032h18.901Z"/>
    <path class="st1" d="M278.943,101.373s3.99,4.13,10.151,4.13c2.94,0,5.881-1.54,5.881-4.41,0-6.511-18.202-5.181-18.202-16.732,0-6.44,5.74-10.081,12.812-10.081,7.771,0,11.411,3.92,11.411,3.92l-2.73,5.111s-3.15-3.15-8.751-3.15c-2.94,0-5.811,1.26-5.811,4.34,0,6.372,18.202,4.971,18.202,16.592,0,5.881-5.041,10.291-12.812,10.291-8.681,0-13.441-5.181-13.441-5.181l3.29-4.83Z"/>
    <path class="st1" d="M309.954,81.071h-4.621v-5.461h4.831v-10.221h6.58v10.221h8.541v5.461h-8.541v15.751c0,7.071,4.971,7.981,7.562,7.981.979,0,1.609-.141,1.609-.141v6.021s-.979.141-2.38.141c-4.551,0-13.581-1.4-13.581-13.231v-16.522Z"/>
    <path class="st1" d="M348.734,74.28c10.57,0,19.111,7.771,19.111,18.482,0,10.781-8.541,18.622-19.111,18.622s-19.112-7.841-19.112-18.622c0-10.711,8.541-18.482,19.112-18.482ZM348.734,105.503c6.721,0,12.181-5.32,12.181-12.741,0-7.351-5.46-12.601-12.181-12.601-6.651,0-12.182,5.25-12.182,12.601,0,7.421,5.53,12.741,12.182,12.741Z"/>
    <path class="st1" d="M374.141,61.118h6.791v38.574c0,4.271,1.68,5.041,3.78,5.041.63,0,1.19-.07,1.19-.07v6.021s-1.051.141-2.24.141c-3.851,0-9.521-1.051-9.521-9.941v-39.764Z"/>
    <path class="st1" d="M408.304,74.28c10.57,0,19.111,7.771,19.111,18.482,0,10.781-8.541,18.622-19.111,18.622s-19.112-7.841-19.112-18.622c0-10.711,8.541-18.482,19.112-18.482ZM408.304,105.503c6.721,0,12.181-5.32,12.181-12.741,0-7.351-5.46-12.601-12.181-12.601-6.651,0-12.182,5.25-12.182,12.601,0,7.421,5.53,12.741,12.182,12.741Z"/>
    <path class="st1" d="M447.012,119.365c6.16,0,11.201-2.73,11.201-9.941v-2.59c0-1.12.069-2.24.069-2.24h-.14c-2.101,3.5-5.391,5.53-10.501,5.53-9.871,0-15.821-7.911-15.821-18.132,0-10.152,5.67-17.712,15.472-17.712,8.54,0,11.131,5.25,11.131,5.25h.14s-.069-.489-.069-1.12v-3.29h6.51v33.955c0,11.69-8.891,16.171-17.852,16.171-4.271,0-8.681-1.189-12.111-2.939l2.24-5.321s4.41,2.381,9.731,2.381ZM458.353,92.061c0-9.241-4.48-11.901-10.011-11.901-6.161,0-9.661,4.48-9.661,11.691,0,7.352,3.92,12.392,10.291,12.392,4.9,0,9.381-2.94,9.381-12.182Z"/>
    <path class="st1" d="M474.241,61.118h6.86v6.931h-6.86v-6.931ZM474.31,75.119h6.791v35.424h-6.791v-35.424Z"/>
    <path class="st1" d="M505.601,74.28c10.011,0,15.332,7.421,15.332,16.592,0,.91-.21,2.94-.21,2.94h-25.833c.35,7.771,5.881,11.69,12.182,11.69,6.09,0,10.501-4.13,10.501-4.13l2.8,4.971s-5.25,5.04-13.722,5.04c-11.131,0-18.762-8.051-18.762-18.552,0-11.272,7.631-18.552,17.712-18.552ZM514.003,88.702c-.21-6.091-3.991-9.032-8.541-9.032-5.181,0-9.381,3.22-10.361,9.032h18.902Z"/>
  </g>
  <g id="Symbol">
    <path class="st0" d="M63.304,123.388c-1.418-1.527-2.072-3.598-1.745-5.561.436-2.726-4.144-5.125-6.107-3.489-1.963,1.527-4.798,1.309-6.652-.436-1.963-1.963-1.963-5.125,0-7.088,1.963-1.963,5.125-1.963,7.088,0,1.09,1.09,1.527,2.508,1.418,3.926-.218,2.617,4.362,5.016,6.325,3.271.545-.545,1.2-.872,1.854-1.2,2.29-.872,2.181-4.798.218-5.888-.327-.109-.545-.327-.763-.545-1.309-1.2-1.309-3.271,0-4.58,1.309-1.2,3.271-1.2,4.58,0,1.2,1.309,1.2,3.38,0,4.58-.218.218-.327.327-.545.436-1.854,1.309-1.527,5.125.763,5.779.981.327,1.963.872,2.726,1.636,2.508,2.508,2.508,6.652,0,9.16-2.508,2.508-6.543,2.508-9.16,0h0ZM38.224,93.401c0-1.854,1.418-3.271,3.162-3.271,1.854,0,3.271,1.418,3.271,3.271,0,1.745-1.418,3.162-3.271,3.162-1.745,0-3.162-1.418-3.162-3.162h0ZM148.469,93.401c0,1.745-1.418,3.162-3.162,3.162s-3.271-1.418-3.271-3.162c0-1.854,1.527-3.271,3.271-3.271s3.162,1.418,3.162,3.271h0ZM132.33,132.33c-1.199,1.309-3.271,1.309-4.58,0-1.199-1.2-1.199-3.271,0-4.58,1.309-1.2,3.38-1.2,4.58,0,1.309,1.309,1.309,3.38,0,4.58h0ZM54.362,54.362c1.199-1.309,3.271-1.309,4.58,0,1.199,1.199,1.199,3.271,0,4.58-1.309,1.199-3.38,1.199-4.58,0-1.309-1.309-1.309-3.38,0-4.58h0ZM132.33,54.362c1.309,1.199,1.309,3.271,0,4.58-1.199,1.199-3.271,1.199-4.58,0-1.199-1.309-1.199-3.38,0-4.58,1.309-1.309,3.38-1.309,4.58,0h0ZM54.362,132.33c-1.309-1.2-1.309-3.271,0-4.58,1.199-1.2,3.271-1.2,4.58,0,1.199,1.309,1.199,3.38,0,4.58-1.309,1.309-3.38,1.309-4.58,0h0ZM93.401,38.224c1.745,0,3.162,1.418,3.162,3.162,0,1.854-1.418,3.271-3.162,3.271-1.854,0-3.271-1.418-3.271-3.271,0-1.745,1.418-3.162,3.271-3.162h0ZM93.401,148.469c-1.854,0-3.271-1.418-3.271-3.162s1.418-3.271,3.271-3.271c1.745,0,3.162,1.527,3.162,3.271s-1.418,3.162-3.162,3.162h0ZM50.982,93.401c0-2.181.981-4.035,2.617-5.234,2.181-1.636.654-6.543-1.854-6.87-2.508-.218-4.362-2.399-4.362-4.907,0-2.726,2.181-5.016,5.016-5.016,2.726,0,4.907,2.29,4.907,5.016,0,1.527-.654,2.944-1.745,3.817-1.963,1.636-.545,6.543,2.181,6.761.763,0,1.418.109,2.072.436,2.29.981,5.016-1.745,4.362-4.035-.109-.218-.109-.545-.109-.872,0-1.745,1.418-3.271,3.162-3.271s3.271,1.527,3.271,3.271-1.527,3.271-3.271,3.271c-.218,0-.436-.109-.654-.109-2.181-.436-4.689,2.508-3.489,4.689.436.872.763,1.854.763,3.053,0,3.489-2.944,6.434-6.434,6.434-3.599,0-6.434-2.944-6.434-6.434h0ZM63.304,63.304c1.527-1.418,3.598-2.072,5.561-1.745,2.726.436,5.125-4.144,3.598-6.107-1.636-1.963-1.418-4.798.327-6.652,1.963-1.963,5.125-1.963,7.088,0,1.963,1.963,1.963,5.125,0,7.088-1.09,1.09-2.508,1.527-3.926,1.418-2.617-.218-5.016,4.362-3.271,6.325.545.545.872,1.199,1.2,1.854.981,2.29,4.798,2.181,5.888.218.109-.327.327-.545.545-.763,1.199-1.309,3.271-1.309,4.58,0,1.199,1.309,1.199,3.271,0,4.58-1.309,1.2-3.38,1.2-4.58,0-.218-.218-.327-.327-.436-.545-1.309-1.854-5.125-1.527-5.779.763-.327.981-.872,1.963-1.636,2.726-2.508,2.508-6.543,2.508-9.16,0-2.508-2.508-2.508-6.543,0-9.16h0ZM93.401,50.982c2.072,0,4.035.981,5.125,2.617,1.636,2.181,6.543.654,6.87-1.854.218-2.508,2.399-4.362,4.907-4.362,2.726,0,5.016,2.181,5.016,5.016,0,2.726-2.29,4.907-5.016,4.907-1.527,0-2.944-.654-3.817-1.745-1.636-1.963-6.543-.545-6.652,2.181-.109.763-.218,1.418-.545,2.072-.981,2.29,1.745,5.016,4.035,4.362.218-.109.545-.109.872-.109,1.745,0,3.271,1.418,3.271,3.162s-1.527,3.271-3.271,3.271-3.162-1.527-3.162-3.271v-.654c.436-2.181-2.508-4.689-4.689-3.489-.872.436-1.854.763-2.944.763-3.599,0-6.543-2.944-6.543-6.434,0-3.599,2.944-6.434,6.543-6.434h0ZM123.388,63.304c1.418,1.527,2.072,3.599,1.745,5.561-.436,2.726,4.144,5.125,6.107,3.598,1.963-1.636,4.798-1.418,6.652.327,1.963,1.963,1.963,5.125,0,7.088-1.963,1.963-5.125,1.963-7.088,0-1.09-1.09-1.527-2.508-1.418-3.926.218-2.617-4.253-5.016-6.325-3.271-.545.545-1.2.872-1.854,1.2-2.29.981-2.181,4.798-.218,5.888.327.109.545.327.763.545,1.309,1.2,1.309,3.271,0,4.58-1.199,1.199-3.271,1.199-4.58,0-1.2-1.309-1.2-3.38,0-4.58.218-.218.327-.327.545-.436,1.854-1.309,1.527-5.125-.763-5.779-.981-.327-1.963-.872-2.726-1.636-2.508-2.508-2.508-6.543,0-9.16,2.508-2.508,6.652-2.508,9.16,0h0ZM135.819,93.401c0,2.072-1.09,4.035-2.726,5.125-2.181,1.636-.654,6.543,1.854,6.87,2.508.218,4.362,2.399,4.362,4.907,0,2.726-2.181,5.016-5.016,5.016-2.726,0-4.907-2.29-4.907-5.016,0-1.527.654-2.944,1.745-3.817,1.963-1.636.545-6.543-2.181-6.652-.763-.109-1.418-.218-2.072-.545-2.29-.981-5.016,1.745-4.362,4.035.109.218.109.545.109.872,0,1.745-1.418,3.271-3.162,3.271s-3.271-1.527-3.271-3.271,1.527-3.162,3.271-3.162h.654c2.181.436,4.689-2.508,3.489-4.689-.436-.872-.763-1.854-.763-2.944,0-3.598,2.944-6.543,6.434-6.543,3.599,0,6.543,2.944,6.543,6.543h0ZM123.388,123.388c-1.527,1.418-3.598,2.072-5.561,1.745-2.726-.436-5.125,4.144-3.489,6.107,1.527,1.963,1.309,4.798-.436,6.652-1.963,1.963-5.125,1.963-7.088,0-1.963-1.963-1.963-5.125,0-7.088,1.09-1.09,2.508-1.527,3.926-1.418,2.617.218,5.016-4.253,3.271-6.325-.545-.545-.872-1.2-1.2-1.854-.872-2.29-4.798-2.181-5.888-.218-.109.327-.327.545-.545.763-1.199,1.309-3.271,1.309-4.58,0-1.199-1.2-1.199-3.271,0-4.58,1.309-1.2,3.38-1.2,4.58,0,.218.218.327.327.436.545,1.309,1.854,5.125,1.527,5.779-.763.327-.981.872-1.963,1.636-2.726,2.508-2.508,6.652-2.508,9.16,0,2.508,2.508,2.508,6.652,0,9.16h0ZM93.401,135.819c-2.181,0-4.035-1.09-5.234-2.726-1.636-2.181-6.543-.654-6.87,1.854-.218,2.508-2.399,4.362-4.907,4.362-2.726,0-5.016-2.181-5.016-5.016,0-2.726,2.29-4.907,5.016-4.907,1.527,0,2.944.654,3.817,1.745,1.636,1.963,6.543.545,6.761-2.181,0-.763.109-1.418.436-2.072.981-2.29-1.745-5.016-4.035-4.362-.218.109-.545.109-.872.109-1.745,0-3.271-1.418-3.271-3.162s1.527-3.271,3.271-3.271,3.271,1.527,3.271,3.271c0,.218-.109.436-.109.654-.436,2.181,2.508,4.689,4.689,3.489.872-.436,1.854-.763,3.053-.763,3.489,0,6.434,2.944,6.434,6.434,0,3.598-2.944,6.543-6.434,6.543h0Z"/>
  </g>
</svg>